<svg width="30" height="30" viewBox="0 0 30 30" fill="none" xmlns="http://www.w3.org/2000/svg">
<path d="M22.5 22.75C22.5 22 25 20.5 25 18.875C25 17 23.25 15.5 21.125 14.875C22 13.875 22.5 12.75 22.5 11.375C22.5 7.875 18.875 5 14.25 5C9.875 5 5 7.625 5 11.375C5 14 7 15.875 7.875 16.625C7.75 18.125 7.125 18.75 7.125 18.75L5.625 20H7.5C9.5 20 11.125 19.375 12.125 18.625C12.125 18.75 12.125 18.75 12.125 18.875C12.125 21.375 14.875 23.375 18.375 23.375C18.625 23.375 18.875 23.375 19.125 23.375C19.625 24 21.25 25.125 23.375 25.125C23.5 25 22.5 24.5 22.5 22.75V22.75ZM14.25 6.25C18.125 6.25 21.25 8.625 21.25 11.375C21.25 14.125 18 16.5 14 16.5C13.75 16.5 13.25 16.5 13 16.5H12.625L12.5 16.75C12.125 17.25 10.625 18.25 8.625 18.625C8.75 18.125 8.75 17.375 8.75 16.375V16C7.5 15 6.125 13.25 6.125 11.5C6.125 8.75 10.125 6.25 14.25 6.25V6.25Z" fill="#464646" fill-opacity="0.7"/>
</svg>
