<svg width="31" height="31" viewBox="0 0 31 31" fill="none" xmlns="http://www.w3.org/2000/svg">
<path d="M29.9375 27.3125L22.0625 19.4375C21.6875 19.0625 21.125 18.875 20.5625 18.875C22.0625 17 23 14.375 23 11.75C23 5.5625 17.9375 0.5 11.75 0.5C5.5625 0.5 0.5 5.5625 0.5 11.75C0.5 17.9375 5.5625 23 11.75 23C14.375 23 17 22.0625 18.875 20.375C18.875 20.9375 18.875 21.5 19.4375 21.875L27.3125 29.75C27.6875 30.125 28.25 30.3125 28.625 30.3125C29 30.3125 29.5625 30.125 29.9375 29.75C30.6875 29.1875 30.6875 28.0625 29.9375 27.3125ZM11.75 20.1875C7.0625 20.1875 3.3125 16.4375 3.3125 11.75C3.3125 7.0625 7.0625 3.3125 11.75 3.3125C16.4375 3.3125 20.1875 7.0625 20.1875 11.75C20.1875 16.4375 16.4375 20.1875 11.75 20.1875Z" fill="white" fill-opacity="0.3"/>
</svg>
