<svg width="36" height="43" viewBox="0 0 36 43" fill="none" xmlns="http://www.w3.org/2000/svg">
<path d="M18.2459 0.5C4.01254 0.5 10.875 19.6625 10.875 19.6625C12.4 22.2875 14.4334 21.7625 14.4334 23.6C14.4334 25.175 12.6542 25.7 10.875 25.9625C8.07921 25.9625 5.53754 25.4375 2.99587 30.1625C1.47087 33.05 0.708374 42.5 0.708374 42.5H35.5292C35.5292 42.5 34.7667 33.05 33.4959 30.1625C30.9542 25.175 28.4125 25.9625 25.6167 25.7C23.8375 25.4375 22.0584 24.9125 22.0584 23.3375C22.0584 21.7625 24.0917 22.2875 25.6167 19.4C25.6167 19.6625 32.4792 0.5 18.2459 0.5V0.5Z" fill="#1C2E45" fill-opacity="0.3"/>
</svg>
